<?xml version="1.0" encoding="UTF-8"?>
<svg xmlns="http://www.w3.org/2000/svg" xmlns:xlink="http://www.w3.org/1999/xlink" viewBox="0 0 48 48" width="48px" height="48px">
<defs>
<linearGradient id="linear0" gradientUnits="userSpaceOnUse" x1="62.405899" y1="58.579262" x2="86.293343" y2="86.340912" gradientTransform="matrix(0.27907,0,0,0.27907,0,0)">
<stop offset="0" style="stop-color:rgb(89.019608%,89.019608%,89.019608%);stop-opacity:1;"/>
<stop offset="1" style="stop-color:rgb(88.627452%,88.627452%,88.627452%);stop-opacity:1;"/>
</linearGradient>
<linearGradient id="linear1" gradientUnits="userSpaceOnUse" x1="92.482559" y1="89.808144" x2="118.161758" y2="122.054466" gradientTransform="matrix(0.27907,0,0,0.27907,0,0)">
<stop offset="0" style="stop-color:rgb(96.078432%,96.078432%,96.078432%);stop-opacity:1;"/>
<stop offset="0.03" style="stop-color:rgb(93.333334%,93.333334%,93.333334%);stop-opacity:1;"/>
<stop offset="1" style="stop-color:rgb(93.333334%,93.333334%,93.333334%);stop-opacity:1;"/>
</linearGradient>
<linearGradient id="linear2" gradientUnits="userSpaceOnUse" x1="30.50312" y1="86" x2="141.496887" y2="86" gradientTransform="matrix(0.27907,0,0,0.27907,0,0)">
<stop offset="0" style="stop-color:rgb(84.313726%,29.019609%,22.352941%);stop-opacity:1;"/>
<stop offset="1" style="stop-color:rgb(78.039217%,23.921569%,15.686275%);stop-opacity:1;"/>
</linearGradient>
<linearGradient id="linear3" gradientUnits="userSpaceOnUse" x1="86" y1="43.716671" x2="86" y2="123.47625" gradientTransform="matrix(0.27907,0,0,0.27907,0,0)">
<stop offset="0" style="stop-color:rgb(0%,0%,0%);stop-opacity:0.15;"/>
<stop offset="1" style="stop-color:rgb(0%,0%,0%);stop-opacity:0.03;"/>
</linearGradient>
<linearGradient id="linear4" gradientUnits="userSpaceOnUse" x1="86" y1="44.895309" x2="86" y2="96.071358" gradientTransform="matrix(0.27907,0,0,0.27907,0,0)">
<stop offset="0" style="stop-color:rgb(87.843138%,31.764707%,25.490198%);stop-opacity:1;"/>
<stop offset="1" style="stop-color:rgb(87.058824%,27.843139%,20.784314%);stop-opacity:1;"/>
</linearGradient>
</defs>
<g id="surface27611764">
<path style=" stroke:none;fill-rule:nonzero;fill:rgb(100%,100%,100%);fill-opacity:1;" d="M 24 48 C 10.746094 48 0 37.253906 0 24 C 0 10.746094 10.746094 0 24 0 C 37.253906 0 48 10.746094 48 24 C 48 37.253906 37.253906 48 24 48 Z M 24 48 "/>
<path style=" stroke:none;fill-rule:nonzero;fill:url(#linear0);" d="M 37.632812 35.800781 L 10.367188 35.800781 C 9.34375 35.800781 8.511719 34.96875 8.511719 33.945312 L 8.511719 14.054688 C 8.511719 13.03125 9.34375 12.199219 10.367188 12.199219 L 37.632812 12.199219 C 38.65625 12.199219 39.488281 13.03125 39.488281 14.054688 L 39.488281 33.945312 C 39.488281 34.96875 38.65625 35.800781 37.632812 35.800781 Z M 37.632812 35.800781 "/>
<path style=" stroke:none;fill-rule:nonzero;fill:url(#linear1);" d="M 37.632812 35.800781 L 12.199219 35.800781 L 39.488281 14.414062 L 39.488281 33.945312 C 39.488281 34.96875 38.65625 35.800781 37.632812 35.800781 Z M 37.632812 35.800781 "/>
<path style=" stroke:none;fill-rule:nonzero;fill:url(#linear2);" d="M 10.367188 12.199219 L 12.199219 12.199219 L 12.199219 35.800781 L 10.367188 35.800781 C 9.34375 35.800781 8.511719 34.96875 8.511719 33.945312 L 8.511719 14.054688 C 8.511719 13.03125 9.34375 12.199219 10.367188 12.199219 Z M 37.632812 12.199219 L 35.800781 12.199219 L 35.800781 35.800781 L 37.632812 35.800781 C 38.65625 35.800781 39.488281 34.96875 39.488281 33.945312 L 39.488281 14.054688 C 39.488281 13.03125 38.65625 12.199219 37.632812 12.199219 Z M 37.632812 12.199219 "/>
<path style=" stroke:none;fill-rule:nonzero;fill:url(#linear3);" d="M 37.632812 35.800781 L 28.804688 35.800781 L 8.511719 14.769531 L 8.511719 14.054688 C 8.511719 13.03125 9.34375 12.199219 10.367188 12.199219 L 37.632812 12.199219 C 38.65625 12.199219 39.488281 13.03125 39.488281 14.054688 L 39.488281 33.945312 C 39.488281 34.96875 38.65625 35.800781 37.632812 35.800781 Z M 37.632812 35.800781 "/>
<path style=" stroke:none;fill-rule:nonzero;fill:rgb(96.078432%,96.078432%,96.078432%);fill-opacity:1;" d="M 38.617188 15.960938 L 24 26.550781 L 9.382812 15.960938 C 8.835938 15.566406 8.511719 14.933594 8.511719 14.261719 L 8.511719 14.054688 C 8.511719 13.03125 9.34375 12.199219 10.367188 12.199219 L 37.632812 12.199219 C 38.65625 12.199219 39.488281 13.03125 39.488281 14.054688 L 39.488281 14.261719 C 39.488281 14.933594 39.164062 15.566406 38.617188 15.960938 Z M 38.617188 15.960938 "/>
<path style=" stroke:none;fill-rule:nonzero;fill:url(#linear4);" d="M 37.632812 12.199219 L 37.410156 12.199219 L 24 21.914062 L 10.589844 12.199219 L 10.367188 12.199219 C 9.34375 12.199219 8.511719 13.03125 8.511719 14.054688 L 8.511719 14.261719 C 8.511719 14.933594 8.835938 15.566406 9.382812 15.960938 L 24 26.550781 L 38.617188 15.960938 C 39.164062 15.566406 39.488281 14.933594 39.488281 14.261719 L 39.488281 14.054688 C 39.488281 13.03125 38.65625 12.199219 37.632812 12.199219 Z M 37.632812 12.199219 "/>
</g>
</svg>
