<?xml version="1.0" encoding="UTF-8"?>
<svg xmlns="http://www.w3.org/2000/svg" xmlns:xlink="http://www.w3.org/1999/xlink" viewBox="0 0 48 48" width="48px" height="48px">
<defs>
<linearGradient id="linear0" gradientUnits="userSpaceOnUse" x1="54.007999" y1="48.819328" x2="86.397751" y2="86.46225" gradientTransform="matrix(0.27907,0,0,0.27907,0,0)">
<stop offset="0" style="stop-color:rgb(89.019608%,89.019608%,89.019608%);stop-opacity:1;"/>
<stop offset="1" style="stop-color:rgb(88.627452%,88.627452%,88.627452%);stop-opacity:1;"/>
</linearGradient>
<linearGradient id="linear1" gradientUnits="userSpaceOnUse" x1="94.789917" y1="91.163582" x2="129.609177" y2="134.887421" gradientTransform="matrix(0.27907,0,0,0.27907,0,0)">
<stop offset="0" style="stop-color:rgb(96.078432%,96.078432%,96.078432%);stop-opacity:1;"/>
<stop offset="0.03" style="stop-color:rgb(93.333334%,93.333334%,93.333334%);stop-opacity:1;"/>
<stop offset="1" style="stop-color:rgb(93.333334%,93.333334%,93.333334%);stop-opacity:1;"/>
</linearGradient>
<linearGradient id="linear2" gradientUnits="userSpaceOnUse" x1="86" y1="28.66667" x2="86" y2="136.815247" gradientTransform="matrix(0.27907,0,0,0.27907,0,0)">
<stop offset="0" style="stop-color:rgb(0%,0%,0%);stop-opacity:0.15;"/>
<stop offset="1" style="stop-color:rgb(0%,0%,0%);stop-opacity:0.03;"/>
</linearGradient>
</defs>
<g id="surface21541843">
<path style=" stroke:none;fill-rule:nonzero;fill:url(#linear0);" d="M 42.484375 40 L 5.515625 40 C 4.125 40 3 38.875 3 37.484375 L 3 10.515625 C 3 9.125 4.125 8 5.515625 8 L 42.484375 8 C 43.875 8 45 9.125 45 10.515625 L 45 37.484375 C 45 38.875 43.875 40 42.484375 40 Z M 42.484375 40 "/>
<path style=" stroke:none;fill-rule:nonzero;fill:url(#linear1);" d="M 42.484375 40 L 8 40 L 45 11 L 45 37.484375 C 45 38.875 43.875 40 42.484375 40 Z M 42.484375 40 "/>
<path style=" stroke:none;fill-rule:nonzero;fill:rgb(0%,0%,0%);fill-opacity:1;" d="M 5.515625 8 L 8 8 L 8 40 L 5.515625 40 C 4.125 40 3 38.875 3 37.484375 L 3 10.515625 C 3 9.125 4.125 8 5.515625 8 Z M 42.484375 8 L 40 8 L 40 40 L 42.484375 40 C 43.875 40 45 38.875 45 37.484375 L 45 10.515625 C 45 9.125 43.875 8 42.484375 8 Z M 42.484375 8 "/>
<path style=" stroke:none;fill-rule:nonzero;fill:url(#linear2);" d="M 42.484375 40 L 30.515625 40 L 3 11.484375 L 3 10.515625 C 3 9.125 4.125 8 5.515625 8 L 42.484375 8 C 43.875 8 45 9.125 45 10.515625 L 45 37.484375 C 45 38.875 43.875 40 42.484375 40 Z M 42.484375 40 "/>
<path style=" stroke:none;fill-rule:nonzero;fill:rgb(96.078432%,96.078432%,96.078432%);fill-opacity:1;" d="M 43.820312 13.101562 L 24 27.460938 L 4.179688 13.101562 C 3.4375 12.566406 3 11.707031 3 10.792969 L 3 10.515625 C 3 9.125 4.125 8 5.515625 8 L 42.484375 8 C 43.875 8 45 9.125 45 10.515625 L 45 10.792969 C 45 11.707031 44.5625 12.566406 43.820312 13.101562 Z M 43.820312 13.101562 "/>
<path style=" stroke:none;fill-rule:nonzero;fill:rgb(0%,0%,0%);fill-opacity:1;" d="M 42.484375 8 L 42.183594 8 L 24 21.171875 L 5.816406 8 L 5.515625 8 C 4.125 8 3 9.125 3 10.515625 L 3 10.792969 C 3 11.707031 3.4375 12.566406 4.179688 13.101562 L 24 27.460938 L 43.820312 13.101562 C 44.5625 12.566406 45 11.707031 45 10.792969 L 45 10.515625 C 45 9.125 43.875 8 42.484375 8 Z M 42.484375 8 "/>
</g>
</svg>
